<svg width="212" height="125" viewBox="0 0 212 125" fill="none" xmlns="http://www.w3.org/2000/svg">
<path fill-rule="evenodd" clip-rule="evenodd" d="M118.832 105.334C121.187 104.76 127.316 100.408 129.42 99.8859L132.443 112.586C130.895 112.202 127.407 110.041 125.761 109.229C124.414 108.632 119.779 105.982 118.829 105.923L118.832 105.334ZM96.3292 112.371L98.5323 103.929C98.7377 103.074 99.1965 101.686 99.2518 100.83C100.7 101.213 104.588 103.43 106.733 104.46L108.428 105.379C108.926 105.703 108.677 105.541 109.025 105.865C107.722 106.178 104.208 108.244 102.753 109.038C101.097 109.884 97.6317 112.057 96.3292 112.371ZM100.58 96.3963L102.683 87.8471L126.393 87.9884L128.197 95.4907C127.045 95.7514 116.705 101.576 114.547 102.687C113.292 103.322 113.295 102.893 111.101 101.703C109.905 101.054 109.008 100.513 107.611 99.9164C105.366 98.9399 102.827 96.9983 100.58 96.3963ZM108.217 66.6361L121.122 66.7131C121.609 68.9099 125.129 82.0947 125.169 83.5932L104.011 83.4671C104.019 82.2364 105.604 76.6271 106.014 75.0778C106.831 72.3001 107.599 69.415 108.217 66.6361ZM114.571 42.1124L115.071 42.1154C115.258 44.364 119.859 60.5518 119.849 62.3176L109.545 62.2562C109.605 60.4907 114.407 44.3589 114.571 42.1124ZM114.939 23.1182C118.54 23.1397 120.248 29.9993 114.396 29.9644C110.545 29.9414 111.037 23.0949 114.939 23.1182ZM107.469 25.8027C107.45 28.7992 107.79 30.5136 109.878 32.5595C110.028 32.6674 110.177 32.8288 110.326 32.9367C110.973 33.4757 111.471 33.9068 112.32 34.1259C109.387 47.2186 103.718 66.0742 100.382 79.8067C97.1499 92.8976 93.0623 106.786 89.8801 119.877C89.6234 120.946 89.2679 121.8 89.5131 122.604C89.9056 123.837 92.6428 126.101 93.8707 121.667C94.9463 117.607 93.8376 118.938 98.4042 116.557C99.4083 115.974 100.462 115.446 101.516 114.917C103.423 113.858 113.011 108.35 113.912 108.355L133.308 118.317C135.401 119.56 134.02 124.475 137.022 124.493C140.923 124.516 138.459 118.562 137.432 114.703L128.892 80.1907C125.727 66.1519 120.339 47.712 117.472 34.1566C118.424 33.8947 119.479 33.0983 120.184 32.3534C120.184 32.2999 120.235 32.2467 120.285 32.1934C126.933 24.9021 117.099 13.5526 109.852 20.6264C108.745 21.7435 107.482 23.6624 107.469 25.8027Z" fill="black"/>
<path fill-rule="evenodd" clip-rule="evenodd" d="M104.222 49.5423C105.522 49.55 106.527 48.8069 106.537 47.3086C106.55 45.1682 102.601 44.6631 98.9821 39.4509C90.3048 27.0917 96.5703 8.82822 110.946 5.70325C131.432 1.22343 143.614 29.3359 127.119 43.525C126.214 44.2688 123.052 45.9623 123.045 47.1395C123.012 52.3834 129.244 47.765 130.753 46.2757C135.836 41.276 139.126 35.0883 139.179 26.5269C139.202 22.8347 138.226 18.8691 137.191 16.3479C136.6 14.8996 135.908 13.5042 135.116 12.2152C134.174 10.7648 133.478 10.065 132.436 8.72097C130.997 6.8395 127.811 4.46602 125.816 3.38391C117.89 -0.944239 107.98 0.0133905 100.592 5.64152C100.039 6.06632 99.8371 6.33267 99.2336 6.86418C93.2505 11.805 89.8854 22.1126 91.0336 30.5742C91.5113 34.2158 92.2497 36.1466 93.5333 38.8834C95.2605 42.6929 101.371 49.5253 104.222 49.5423Z" fill="black"/>
<path fill-rule="evenodd" clip-rule="evenodd" d="M99.4655 25.755C99.441 29.7147 99.776 32.1782 101.656 35.5071C105.616 42.2731 108.928 40.634 108.942 38.2261C108.959 35.4971 103.515 34.1804 103.562 26.6356C103.604 19.8934 108.839 14.52 114.241 14.5522C118.093 14.5752 120.589 15.3927 123.172 18.2442C126.6 22.0104 127.361 28.3293 124.481 33.1281C122.862 35.9546 120.811 36.1029 120.797 38.2967C120.788 39.688 122.377 41.6238 124.49 39.7635C127.759 36.8934 130.385 32.8958 130.416 27.8659C130.451 22.1404 129.621 18.8178 125.646 14.5132C119.485 7.8411 108.378 8.14946 102.524 16.5693C100.858 19.0209 99.4857 22.4909 99.4655 25.755Z" fill="black"/>
<path fill-rule="evenodd" clip-rule="evenodd" d="M16.785 114.037L5.78071 113.971L6.34809 22.2032L19.6533 22.2826C19.799 22.9791 20.5433 23.9467 20.8898 24.5374L60.3984 90.5916C60.7446 91.2358 62.5735 94.7784 63.2221 95.0499L63.6703 22.545L74.6746 22.6106L74.1072 114.379L60.2518 114.296L22.7709 51.9998C22.0776 50.872 17.9716 43.4629 17.223 43.1909L16.785 114.037ZM0.0407834 120.037L22.6496 120.172L22.9973 63.9341L48.5472 106.146C48.8444 106.63 56.7681 119.519 57.0129 120.377L79.7717 120.513L80.4145 16.5445L57.8558 16.4101L57.4991 74.0929C57.0013 73.7154 49.9229 61.6332 48.7344 59.6997L37.9913 41.6559C37.1986 40.4204 36.6053 39.2931 35.8126 38.0577L29.3272 27.1562C28.5846 25.9211 27.9413 24.7935 27.1986 23.5583L23.9307 18.1342C23.5845 17.49 23.088 16.8984 22.8922 16.2016L0.683594 16.0692L0.0407834 120.037Z" fill="black"/>
<path fill-rule="evenodd" clip-rule="evenodd" d="M162.612 63.2147L201.127 63.4443L201.086 69.9189L162.572 69.6893L162.33 108.697L204.847 108.951L204.807 115.425L156.438 115.137L157.041 17.697L205.409 17.9854L205.369 24.46L162.853 24.2065L162.612 63.2147ZM150.146 121.574L211.019 121.937L211.139 102.514L168.623 102.26L168.784 76.2011L207.049 76.4293L207.169 57.0054L168.904 56.7773L169.065 30.7184L211.582 30.9718L211.702 11.548L150.828 11.1851L150.146 121.574Z" fill="black"/>
</svg>
