<svg width="300" height="300" viewBox="0 0 300 300" fill="none" xmlns="http://www.w3.org/2000/svg">
<path d="M0 30C0 13.4315 13.4315 0 30 0H270C286.569 0 300 13.4315 300 30V300H0V30Z" fill="#202E4F"/>
<path d="M188 159C188 169.078 183.996 178.744 176.87 185.87C169.744 192.996 160.078 197 150 197C139.922 197 130.256 192.996 123.13 185.87C116.004 178.744 112 169.078 112 159C112 148.922 116.004 139.256 123.13 132.13C130.256 125.004 139.922 121 150 121C160.078 121 169.744 125.004 176.87 132.13C183.996 139.256 188 148.922 188 159V159Z" fill="#F3F3F3"/>
<path d="M58.5 90.5C50.4109 90.5 42.6531 93.7134 36.9332 99.4332C31.2134 105.153 28 112.911 28 121L28 212.5C28 220.589 31.2134 228.347 36.9332 234.067C42.6531 239.787 50.4109 243 58.5 243H241.5C249.589 243 257.347 239.787 263.067 234.067C268.787 228.347 272 220.589 272 212.5V121C272 112.911 268.787 105.153 263.067 99.4332C257.347 93.7134 249.589 90.5 241.5 90.5H223.627C215.539 90.4983 207.782 87.2838 202.063 81.5635L189.437 68.9365C183.718 63.2162 175.961 60.0017 167.873 60H132.127C124.039 60.0017 116.282 63.2162 110.564 68.9365L97.9365 81.5635C92.218 87.2838 84.4614 90.4983 76.373 90.5H58.5ZM66.125 121C64.1027 121 62.1633 120.197 60.7333 118.767C59.3033 117.337 58.5 115.397 58.5 113.375C58.5 111.353 59.3033 109.413 60.7333 107.983C62.1633 106.553 64.1027 105.75 66.125 105.75C68.1473 105.75 70.0867 106.553 71.5167 107.983C72.9467 109.413 73.75 111.353 73.75 113.375C73.75 115.397 72.9467 117.337 71.5167 118.767C70.0867 120.197 68.1473 121 66.125 121ZM203.375 159.125C203.375 173.281 197.752 186.857 187.742 196.867C177.732 206.877 164.156 212.5 150 212.5C135.844 212.5 122.268 206.877 112.258 196.867C102.248 186.857 96.625 173.281 96.625 159.125C96.625 144.969 102.248 131.393 112.258 121.383C122.268 111.373 135.844 105.75 150 105.75C164.156 105.75 177.732 111.373 187.742 121.383C197.752 131.393 203.375 144.969 203.375 159.125V159.125Z" fill="#F3F3F3"/>
</svg>
