<svg width="1118" height="679" viewBox="0 0 1118 679" fill="none" xmlns="http://www.w3.org/2000/svg">
<path fill-rule="evenodd" clip-rule="evenodd" d="M41.1162 658.494H33.9726L7.77924 606.407C6.9855 605.207 6.45634 603.767 5.92718 602.327C5.92718 603.767 6.19176 606.647 6.19176 611.208V658.494H0.106445V593.206H7.77924L33.4434 644.332C34.5017 646.492 35.0309 647.932 35.56 648.652C35.2954 646.732 35.2954 643.612 35.2954 639.051V593.206H41.1162V658.494ZM68.897 659.454C63.6054 659.454 59.3721 657.293 56.1972 652.973C53.0222 648.652 51.4348 642.892 51.4348 635.691C51.4348 627.77 53.0222 621.769 56.1972 617.209C59.6367 612.888 64.1346 610.728 69.9553 610.728C75.2469 610.728 79.4801 612.888 82.6551 617.209C85.5655 621.529 87.1529 627.29 87.1529 634.971C87.1529 642.412 85.5655 648.412 82.1259 652.733C78.951 657.293 74.4531 659.454 68.897 659.454ZM69.4261 616.969C65.722 616.969 62.8117 618.649 60.4305 621.769C58.3138 625.13 57.2555 629.69 57.2555 635.451C57.2555 640.971 58.3138 645.292 60.695 648.412C62.8117 651.773 65.722 653.213 69.4261 653.213C73.1302 653.213 76.0406 651.773 78.1572 648.652C80.0093 645.532 81.0676 640.971 81.0676 635.211C81.0676 629.45 80.0093 624.889 78.1572 621.769C76.0406 618.649 73.1302 616.969 69.4261 616.969ZM113.346 658.014C112.023 658.974 110.171 659.454 107.79 659.454C101.44 659.454 98.2652 654.893 98.2652 645.772V618.169H92.1799V611.928H98.2652V600.406L104.086 598.006V611.928H113.346V618.169H104.086V644.572C104.086 647.692 104.615 649.853 105.409 651.293C106.203 652.493 107.526 653.213 109.378 653.213C110.965 653.213 112.288 652.733 113.346 651.533V658.014ZM123.929 599.926C123.136 599.926 122.077 599.446 121.284 598.726C120.754 597.766 120.225 596.566 120.225 595.126C120.225 593.686 120.754 592.726 121.284 591.765C122.077 590.805 123.136 590.325 123.929 590.325C124.988 590.325 126.046 590.805 126.84 591.765C127.634 592.726 127.898 593.686 127.898 595.126C127.898 596.566 127.634 597.766 126.84 598.486C126.046 599.446 124.988 599.926 123.929 599.926ZM126.84 658.494H121.019V611.928H126.84V658.494ZM156.737 596.086C155.414 595.126 154.356 594.886 152.769 594.886C148.8 594.886 146.683 598.006 146.683 604.727V611.928H155.15V618.169H146.683V658.494H140.862V618.169H134.777V611.928H140.862V604.247C140.862 599.446 141.921 595.606 144.302 592.726C146.419 589.845 149.064 588.405 152.504 588.405C154.091 588.405 155.679 588.645 156.737 589.365V596.086ZM164.41 599.926C163.352 599.926 162.558 599.446 161.764 598.726C160.97 597.766 160.706 596.566 160.706 595.126C160.706 593.926 160.97 592.726 161.764 591.765C162.558 590.805 163.352 590.325 164.41 590.325C165.468 590.325 166.527 590.805 167.32 591.765C168.114 592.726 168.379 593.686 168.379 595.126C168.379 596.566 168.114 597.766 167.32 598.486C166.527 599.446 165.468 599.926 164.41 599.926ZM167.32 658.494H161.5V611.928H167.32V658.494ZM203.832 656.333C201.186 658.494 197.747 659.454 193.778 659.454C188.751 659.454 184.518 657.293 181.343 652.973C178.168 648.652 176.581 643.132 176.581 636.171C176.581 628.49 178.168 622.249 181.608 617.689C185.047 613.128 189.81 610.728 195.366 610.728C198.541 610.728 201.451 611.448 203.832 612.888V620.569C201.186 618.169 198.276 616.969 195.366 616.969C191.662 616.969 188.487 618.649 186.105 622.009C183.724 625.61 182.666 629.93 182.666 635.451C182.666 640.971 183.724 645.292 185.841 648.652C188.222 651.773 191.132 653.213 194.837 653.213C198.012 653.213 201.186 652.013 203.832 649.132V656.333ZM238.757 658.494H232.936V651.053H232.671C230.29 656.813 226.586 659.454 221.559 659.454C217.855 659.454 214.945 658.254 213.093 655.853C210.976 653.453 209.918 650.093 209.918 646.012C209.918 637.371 213.886 632.33 221.824 630.89L232.936 628.97C232.936 621.049 230.29 616.969 225.263 616.969C221.03 616.969 217.061 618.889 213.622 622.729V615.048C217.061 612.168 221.294 610.728 225.792 610.728C234.523 610.728 238.757 616.488 238.757 628.01V658.494ZM232.936 634.731L224.205 636.411C221.294 636.891 219.442 637.851 217.855 639.051C216.532 640.251 216.003 642.412 216.003 645.532C216.003 647.692 216.532 649.613 217.855 651.053C219.178 652.493 220.765 653.213 222.882 653.213C225.792 653.213 228.174 652.013 230.026 649.372C231.878 646.732 232.936 643.372 232.936 639.531V634.731ZM274.475 656.333C271.564 658.494 268.39 659.454 264.421 659.454C259.394 659.454 255.161 657.293 251.986 652.973C248.811 648.652 247.223 643.132 247.223 636.171C247.223 628.49 248.811 622.249 252.25 617.689C255.69 613.128 260.452 610.728 266.008 610.728C269.183 610.728 272.094 611.448 274.475 612.888V620.569C271.829 618.169 268.919 616.969 265.744 616.969C262.04 616.969 259.129 618.649 256.748 622.009C254.367 625.61 253.044 629.93 253.044 635.451C253.044 640.971 254.367 645.292 256.483 648.652C258.865 651.773 261.775 653.213 265.479 653.213C268.654 653.213 271.564 652.013 274.475 649.132V656.333ZM271.3 670.015C271.3 675.296 268.125 678.176 261.51 678.176C260.717 678.176 259.923 677.936 259.394 677.936V673.855C260.452 674.096 261.246 674.096 261.775 674.096C265.215 674.096 266.802 672.895 266.802 670.015C266.802 667.615 265.215 666.415 262.304 666.415C262.04 666.415 261.51 666.655 260.717 666.655V658.494H264.685V663.054C266.802 663.054 268.39 663.774 269.712 664.974C270.771 666.175 271.3 667.855 271.3 670.015ZM309.399 658.494H303.579V651.053H303.314C300.933 656.813 296.964 659.454 292.202 659.454C288.498 659.454 285.587 658.254 283.735 655.853C281.618 653.453 280.56 650.093 280.56 646.012C280.56 637.371 284.529 632.33 292.466 630.89L303.579 628.97C303.579 621.049 300.933 616.969 295.906 616.969C291.672 616.969 287.704 618.889 284.264 622.729V615.048C287.704 612.168 291.937 610.728 296.435 610.728C305.166 610.728 309.399 616.488 309.399 628.01V658.494ZM303.579 634.731L294.583 636.411C291.937 636.891 290.085 637.851 288.498 639.051C287.175 640.251 286.645 642.412 286.645 645.532C286.645 647.692 287.175 649.613 288.498 651.053C289.82 652.493 291.408 653.213 293.525 653.213C296.435 653.213 298.816 652.013 300.668 649.372C302.52 646.732 303.579 643.372 303.579 639.531V634.731ZM307.283 592.005C307.283 595.366 306.753 597.766 305.695 599.926C304.637 601.847 303.049 602.807 300.933 602.807C299.345 602.807 297.493 602.087 295.377 600.647C293.525 599.206 291.937 598.726 291.143 598.726C289.027 598.726 287.968 600.406 287.968 603.767H284.529C284.529 600.406 285.058 598.006 286.381 595.846C287.439 593.926 289.027 592.966 291.143 592.966C292.466 592.966 294.318 593.686 296.435 595.366C298.022 596.566 299.61 597.286 300.933 597.286C302.785 597.286 303.843 595.606 303.843 592.005H307.283ZM335.593 659.454C330.036 659.454 325.803 657.293 322.628 652.973C319.453 648.652 317.866 642.892 317.866 635.691C317.866 627.77 319.453 621.769 322.893 617.209C326.068 612.888 330.566 610.728 336.386 610.728C341.678 610.728 345.911 612.888 349.086 617.209C351.996 621.529 353.584 627.29 353.584 634.971C353.584 642.412 351.996 648.412 348.557 652.733C345.382 657.293 340.884 659.454 335.593 659.454ZM335.857 616.969C332.153 616.969 329.243 618.649 327.126 621.769C324.745 625.13 323.687 629.69 323.687 635.451C323.687 640.971 325.009 645.292 327.126 648.412C329.243 651.773 332.153 653.213 335.857 653.213C339.561 653.213 342.472 651.773 344.588 648.652C346.705 645.532 347.763 640.971 347.763 635.211C347.763 629.45 346.705 624.889 344.588 621.769C342.472 618.649 339.561 616.969 335.857 616.969ZM413.908 658.494H408.087V650.573H407.823C405.177 656.573 401.208 659.454 395.387 659.454C390.89 659.454 387.185 657.533 384.54 653.213C381.629 649.132 380.306 643.372 380.306 636.171C380.306 628.49 381.894 622.249 384.804 617.689C387.979 613.128 391.948 610.728 396.975 610.728C402.002 610.728 405.706 613.128 407.823 618.169H408.087V589.365H413.908V658.494ZM408.087 637.371V630.41C408.087 626.81 407.029 623.449 405.177 620.809C403.325 618.169 400.679 616.969 397.769 616.969C394.329 616.969 391.419 618.649 389.302 622.009C387.45 625.37 386.392 629.93 386.392 635.931C386.392 641.211 387.45 645.532 389.302 648.652C391.154 651.773 393.8 653.213 397.239 653.213C400.414 653.213 403.06 651.773 405.177 648.652C407.029 645.772 408.087 641.932 408.087 637.371ZM454.918 636.891H429.254C429.254 642.172 430.312 646.252 432.428 649.132C434.545 651.773 437.455 653.213 441.16 653.213C445.128 653.213 448.832 651.533 452.272 648.172V655.133C449.097 658.014 444.864 659.454 439.837 659.454C434.545 659.454 430.576 657.293 427.666 653.213C424.756 648.892 423.168 642.892 423.168 635.211C423.168 628.01 424.756 622.249 427.931 617.449C431.37 612.888 435.339 610.728 440.101 610.728C444.864 610.728 448.303 612.648 450.949 616.728C453.595 620.569 454.918 626.09 454.918 633.05V636.891ZM449.097 630.65C448.832 626.33 448.039 622.969 446.451 620.569C444.864 618.169 442.747 616.969 439.837 616.969C437.191 616.969 434.81 618.169 432.958 620.809C430.841 623.209 429.783 626.57 429.254 630.65H449.097ZM495.398 593.206V599.686H490.371V651.773H495.398V658.494H479.524V651.773H484.551V599.686H479.524V593.206H495.398ZM533.233 658.494H527.412V631.85C527.412 622.009 524.502 616.969 518.946 616.969C516.035 616.969 513.654 618.409 511.802 621.049C509.95 623.929 508.892 627.53 508.892 631.85V658.494H503.071V611.928H508.892V619.609C511.802 613.608 515.771 610.728 521.062 610.728C525.031 610.728 527.941 612.408 530.058 615.768C532.175 618.889 533.233 623.689 533.233 629.93V658.494ZM562.072 596.086C561.014 595.126 559.691 594.886 558.368 594.886C554.135 594.886 552.283 598.006 552.283 604.727V611.928H560.749V618.169H552.283V658.494H546.462V618.169H540.112V611.928H546.462V604.247C546.462 599.446 547.52 595.606 549.637 592.726C552.018 589.845 554.664 588.405 557.839 588.405C559.691 588.405 561.014 588.645 562.072 589.365V596.086ZM582.18 659.454C576.889 659.454 572.655 657.293 569.216 652.973C566.041 648.652 564.453 642.892 564.453 635.691C564.453 627.77 566.305 621.769 569.48 617.209C572.92 612.888 577.418 610.728 582.974 610.728C588.53 610.728 592.763 612.888 595.674 617.209C598.849 621.529 600.436 627.29 600.436 634.971C600.436 642.412 598.584 648.412 595.409 652.733C592.234 657.293 587.736 659.454 582.18 659.454ZM582.709 616.969C579.005 616.969 575.83 618.649 573.714 621.769C571.597 625.13 570.539 629.69 570.539 635.451C570.539 640.971 571.597 645.292 573.714 648.412C576.095 651.773 579.005 653.213 582.709 653.213C586.413 653.213 589.324 651.773 591.44 648.652C593.292 645.532 594.351 640.971 594.351 635.211C594.351 629.45 593.292 624.889 591.44 621.769C589.324 618.649 586.413 616.969 582.709 616.969ZM628.481 619.369C627.688 618.409 626.1 617.929 624.248 617.929C621.602 617.929 619.75 619.369 617.898 622.489C616.311 625.37 615.517 629.45 615.517 634.731V658.494H609.696V611.928H615.517V621.529C616.311 618.169 617.634 615.528 619.486 613.848C621.073 611.928 622.925 610.968 625.042 610.968C626.629 610.968 627.688 611.208 628.481 611.688V619.369ZM686.689 658.494H680.868V631.61C680.868 626.57 680.074 622.729 679.016 620.329C677.693 618.169 675.577 616.969 672.666 616.969C670.02 616.969 667.904 618.409 666.316 621.289C664.464 624.169 663.67 627.77 663.67 631.85V658.494H657.85V630.65C657.85 621.529 654.939 616.969 649.648 616.969C647.002 616.969 644.885 618.409 643.298 621.049C641.446 623.929 640.652 627.29 640.652 631.85V658.494H634.831V611.928H640.652V619.129H640.917C643.562 613.608 647.267 610.728 652.294 610.728C654.675 610.728 656.791 611.688 658.643 613.368C660.496 615.048 661.818 617.449 662.348 620.329C665.258 613.848 669.227 610.728 674.518 610.728C682.456 610.728 686.689 616.969 686.689 629.69V658.494ZM723.73 658.494H717.909V651.053H717.645C714.999 656.813 711.295 659.454 706.532 659.454C702.828 659.454 699.918 658.254 698.066 655.853C695.949 653.453 694.891 650.093 694.891 646.012C694.891 637.371 698.86 632.33 706.797 630.89L717.909 628.97C717.909 621.049 715.263 616.969 710.236 616.969C706.003 616.969 702.034 618.889 698.33 622.729V615.048C702.034 612.168 706.268 610.728 710.766 610.728C719.232 610.728 723.73 616.488 723.73 628.01V658.494ZM717.909 634.731L708.914 636.411C706.268 636.891 704.416 637.851 702.828 639.051C701.505 640.251 700.976 642.412 700.976 645.532C700.976 647.692 701.505 649.613 702.828 651.053C704.151 652.493 705.739 653.213 707.855 653.213C710.766 653.213 713.147 652.013 714.999 649.372C716.851 646.732 717.909 643.372 717.909 639.531V634.731ZM759.448 656.333C756.538 658.494 753.363 659.454 749.394 659.454C744.367 659.454 740.134 657.293 736.959 652.973C733.784 648.652 732.196 643.132 732.196 636.171C732.196 628.49 733.784 622.249 737.223 617.689C740.663 613.128 745.425 610.728 750.982 610.728C754.157 610.728 757.067 611.448 759.448 612.888V620.569C756.802 618.169 753.892 616.969 750.717 616.969C747.013 616.969 744.103 618.649 741.721 622.009C739.34 625.61 738.017 629.93 738.017 635.451C738.017 640.971 739.34 645.292 741.457 648.652C743.573 651.773 746.748 653.213 750.452 653.213C753.627 653.213 756.538 652.013 759.448 649.132V656.333ZM756.273 670.015C756.273 675.296 753.098 678.176 746.484 678.176C745.69 678.176 744.896 677.936 744.367 677.936V673.855C745.425 674.096 746.219 674.096 746.748 674.096C750.188 674.096 751.775 672.895 751.775 670.015C751.775 667.615 750.188 666.415 747.277 666.415C747.013 666.415 746.484 666.655 745.69 666.655V658.494H749.659V663.054C751.775 663.054 753.363 663.774 754.421 664.974C755.744 666.175 756.273 667.855 756.273 670.015ZM783.525 659.454C777.969 659.454 773.735 657.293 770.56 652.973C767.385 648.652 765.798 642.892 765.798 635.691C765.798 627.77 767.385 621.769 770.825 617.209C774 612.888 778.498 610.728 784.319 610.728C789.61 610.728 793.843 612.888 797.018 617.209C799.929 621.529 801.516 627.29 801.516 634.971C801.516 642.412 799.929 648.412 796.489 652.733C793.314 657.293 788.816 659.454 783.525 659.454ZM783.789 616.969C780.085 616.969 777.175 618.649 775.058 621.769C772.677 625.13 771.619 629.69 771.619 635.451C771.619 640.971 772.677 645.292 775.058 648.412C777.175 651.773 780.085 653.213 783.789 653.213C787.493 653.213 790.404 651.773 792.52 648.652C794.637 645.532 795.431 640.971 795.431 635.211C795.431 629.45 794.637 624.889 792.52 621.769C790.404 618.649 787.493 616.969 783.789 616.969ZM795.431 592.005C795.431 595.366 794.902 597.766 793.579 599.926C792.52 601.847 790.933 602.807 789.081 602.807C787.229 602.807 785.377 602.087 783.26 600.647C781.408 599.206 780.085 598.726 779.027 598.726C776.91 598.726 775.852 600.406 775.852 603.767H772.677C772.677 600.406 773.206 598.006 774.265 595.846C775.323 593.926 776.91 592.966 779.027 592.966C780.614 592.966 782.466 593.686 784.319 595.366C786.171 596.566 787.493 597.286 788.816 597.286C790.933 597.286 791.991 595.606 791.991 592.005H795.431ZM840.145 636.891H814.481C814.481 642.172 815.539 646.252 817.655 649.132C819.772 651.773 822.682 653.213 826.122 653.213C830.355 653.213 834.059 651.533 837.499 648.172V655.133C834.324 658.014 830.091 659.454 824.799 659.454C819.772 659.454 815.803 657.293 812.893 653.213C809.718 648.892 808.395 642.892 808.395 635.211C808.395 628.01 809.983 622.249 813.158 617.449C816.333 612.888 820.301 610.728 825.064 610.728C829.826 610.728 833.53 612.648 836.176 616.728C838.822 620.569 840.145 626.09 840.145 633.05V636.891ZM834.059 630.65C834.059 626.33 833.266 622.969 831.678 620.569C830.091 618.169 827.974 616.969 825.064 616.969C822.153 616.969 820.037 618.169 817.92 620.809C816.068 623.209 815.01 626.57 814.481 630.65H834.059ZM846.759 656.813V648.652C849.934 651.773 853.374 653.213 857.078 653.213C862.369 653.213 864.751 651.053 864.751 646.732C864.751 645.532 864.486 644.332 864.221 643.612C863.692 642.652 863.163 641.932 862.369 641.211C861.576 640.491 860.782 640.011 859.724 639.531C858.665 638.811 857.607 638.331 856.549 637.851C854.961 636.891 853.638 636.171 852.315 635.211C850.992 634.491 849.934 633.531 849.14 632.33C848.347 631.37 847.817 630.17 847.288 628.97C847.024 627.53 846.759 626.09 846.759 624.169C846.759 622.009 847.288 620.089 847.817 618.409C848.611 616.728 849.67 615.288 850.992 614.088C852.315 613.128 853.903 612.168 855.49 611.688C857.078 610.968 858.93 610.728 860.782 610.728C863.692 610.728 866.603 611.448 868.984 612.648V620.329C866.338 618.169 863.428 616.969 859.988 616.969C858.93 616.969 857.871 617.209 857.078 617.449C856.019 617.689 855.226 618.169 854.697 618.889C854.167 619.369 853.638 620.089 853.374 620.809C852.844 621.769 852.844 622.489 852.844 623.449C852.844 624.649 852.844 625.85 853.374 626.57C853.638 627.53 854.167 628.25 854.697 628.73C855.49 629.45 856.284 629.93 857.078 630.41C858.136 631.13 859.194 631.61 860.517 632.09C862.105 633.05 863.428 633.771 864.751 634.731C866.073 635.451 867.132 636.411 867.925 637.371C868.984 638.571 869.513 639.771 870.042 640.971C870.571 642.412 870.836 644.092 870.836 646.012C870.836 648.172 870.307 650.333 869.513 652.013C868.719 653.693 867.661 655.133 866.338 656.093C865.015 657.293 863.692 658.254 861.84 658.734C860.253 659.214 858.401 659.454 856.549 659.454C852.58 659.454 849.405 658.494 846.759 656.813ZM927.456 658.494H900.469V593.206H926.397V600.166H906.554V621.769H924.81V628.73H906.554V651.533H927.456V658.494ZM934.335 656.813V648.652C937.51 651.773 940.949 653.213 944.653 653.213C949.945 653.213 952.326 651.053 952.326 646.732C952.326 645.532 952.326 644.332 951.797 643.612C951.268 642.652 950.739 641.932 949.945 641.211C949.151 640.491 948.357 640.011 947.299 639.531C946.505 638.811 945.183 638.331 944.124 637.851C942.537 636.891 941.214 636.171 939.891 635.211C938.568 634.491 937.774 633.531 936.716 632.33C935.922 631.37 935.393 630.17 935.129 628.97C934.599 627.53 934.335 626.09 934.335 624.169C934.335 622.009 934.864 620.089 935.658 618.409C936.451 616.728 937.51 615.288 938.568 614.088C939.891 613.128 941.478 612.168 943.066 611.688C944.918 610.968 946.505 610.728 948.357 610.728C951.532 610.728 954.178 611.448 956.824 612.648V620.329C954.178 618.169 951.003 616.969 947.564 616.969C946.505 616.969 945.447 617.209 944.653 617.449C943.595 617.689 943.066 618.169 942.272 618.889C941.743 619.369 941.214 620.089 940.949 620.809C940.42 621.769 940.42 622.489 940.42 623.449C940.42 624.649 940.42 625.85 940.949 626.57C941.214 627.53 941.743 628.25 942.272 628.73C943.066 629.45 943.86 629.93 944.653 630.41C945.712 631.13 946.77 631.61 948.093 632.09C949.68 633.05 951.003 633.771 952.326 634.731C953.649 635.451 954.707 636.411 955.501 637.371C956.559 638.571 957.089 639.771 957.618 640.971C958.147 642.412 958.411 644.092 958.411 646.012C958.411 648.172 957.882 650.333 957.089 652.013C956.295 653.693 955.237 655.133 953.914 656.093C952.591 657.293 951.268 658.254 949.416 658.734C947.828 659.214 945.976 659.454 944.124 659.454C940.42 659.454 936.981 658.494 934.335 656.813ZM992.278 656.333C989.367 658.494 986.192 659.454 982.224 659.454C976.932 659.454 972.963 657.293 969.788 652.973C966.613 648.652 965.026 643.132 965.026 636.171C965.026 628.49 966.613 622.249 970.053 617.689C973.492 613.128 977.99 610.728 983.811 610.728C986.986 610.728 989.896 611.448 992.278 612.888V620.569C989.632 618.169 986.721 616.969 983.546 616.969C979.842 616.969 976.932 618.649 974.551 622.009C972.17 625.61 970.847 629.93 970.847 635.451C970.847 640.971 971.905 645.292 974.286 648.652C976.403 651.773 979.578 653.213 983.282 653.213C986.457 653.213 989.367 652.013 992.278 649.132V656.333ZM1016.09 659.454C1010.8 659.454 1006.56 657.293 1003.39 652.973C1000.21 648.652 998.363 642.892 998.363 635.691C998.363 627.77 1000.21 621.769 1003.39 617.209C1006.83 612.888 1011.33 610.728 1017.15 610.728C1022.44 610.728 1026.67 612.888 1029.85 617.209C1032.76 621.529 1034.35 627.29 1034.35 634.971C1034.35 642.412 1032.76 648.412 1029.32 652.733C1026.14 657.293 1021.65 659.454 1016.09 659.454ZM1016.62 616.969C1012.91 616.969 1010 618.649 1007.62 621.769C1005.51 625.13 1004.45 629.69 1004.45 635.451C1004.45 640.971 1005.51 645.292 1007.89 648.412C1010 651.773 1012.91 653.213 1016.62 653.213C1020.32 653.213 1023.23 651.773 1025.35 648.652C1027.2 645.532 1028.26 640.971 1028.26 635.211C1028.26 629.45 1027.2 624.889 1025.35 621.769C1023.23 618.649 1020.32 616.969 1016.62 616.969ZM1049.43 658.494H1043.61V589.365H1049.43V658.494ZM1087.26 658.494H1081.44V651.053H1081.18C1078.79 656.813 1075.09 659.454 1070.06 659.454C1066.36 659.454 1063.71 658.254 1061.6 655.853C1059.48 653.453 1058.42 650.093 1058.42 646.012C1058.42 637.371 1062.66 632.33 1070.59 630.89L1081.44 628.97C1081.44 621.049 1079.06 616.969 1074.03 616.969C1069.53 616.969 1065.57 618.889 1062.13 622.729V615.048C1065.57 612.168 1069.8 610.728 1074.56 610.728C1083.03 610.728 1087.26 616.488 1087.26 628.01V658.494ZM1081.44 634.731L1072.71 636.411C1070.06 636.891 1067.95 637.851 1066.62 639.051C1065.3 640.251 1064.51 642.412 1064.51 645.532C1064.51 647.692 1065.04 649.613 1066.36 651.053C1067.68 652.493 1069.27 653.213 1071.39 653.213C1074.3 653.213 1076.68 652.013 1078.53 649.372C1080.38 646.732 1081.44 643.372 1081.44 639.531V634.731ZM1117.16 619.369C1116.1 618.409 1114.78 617.929 1112.93 617.929C1110.28 617.929 1108.16 619.369 1106.58 622.489C1104.99 625.37 1103.93 629.45 1103.93 634.731V658.494H1098.11V611.928H1103.93V621.529H1104.19C1104.99 618.169 1106.31 615.528 1107.9 613.848C1109.75 611.928 1111.6 610.968 1113.72 610.968C1115.31 610.968 1116.37 611.208 1117.16 611.688V619.369Z" fill="white"/>
<path fill-rule="evenodd" clip-rule="evenodd" d="M629.541 469.35C641.976 466.71 674.254 447.028 685.367 444.627L701.771 501.514C693.569 499.834 675.048 490.233 666.317 486.633C659.173 483.992 634.568 472.231 629.541 471.991V469.35ZM510.745 501.514L522.121 463.59C523.18 459.749 525.561 453.509 525.826 449.668C533.498 451.348 554.136 461.189 565.512 465.75L574.508 469.831C577.154 471.271 575.831 470.551 577.683 471.991C570.804 473.431 552.283 482.792 544.611 486.393C535.88 490.233 517.624 500.074 510.745 501.514ZM532.705 429.746L543.552 391.341H668.963L678.752 424.945C672.667 426.145 618.164 452.548 606.787 457.589C600.172 460.469 600.172 458.549 588.531 453.269C582.181 450.388 577.418 447.988 570.01 445.348C558.104 441.027 544.611 432.386 532.705 429.746ZM572.127 296.049H640.388C643.034 305.891 662.084 364.938 662.348 371.659H550.431C550.431 366.138 558.633 340.935 560.75 333.974C564.983 321.492 568.952 308.531 572.127 296.049ZM604.935 185.876H607.58C608.639 195.957 633.509 268.446 633.509 276.367H579.006C579.271 268.446 604.141 195.957 604.935 185.876ZM606.258 100.665C625.307 100.665 634.568 131.389 603.612 131.389C583.239 131.389 585.62 100.665 606.258 100.665ZM566.835 112.907C566.835 126.349 568.687 134.03 579.8 143.151C580.593 143.631 581.387 144.351 582.181 144.831C585.62 147.231 588.266 149.151 592.764 150.111C577.683 208.919 548.315 293.649 531.117 355.337C514.449 414.144 493.282 476.551 476.878 535.359C475.556 540.159 473.704 544 475.026 547.6C477.143 553.121 491.695 563.202 498.045 543.28C503.601 525.037 497.78 531.038 521.857 520.237C527.148 517.596 532.705 515.196 538.261 512.796C548.315 507.995 598.849 483.032 603.612 483.032L706.533 527.198C717.645 532.718 710.502 554.801 726.376 554.801C747.014 554.801 733.785 528.158 728.228 510.876L681.927 356.297C664.73 293.409 635.626 210.839 620.016 150.111C625.043 148.911 630.599 145.311 634.303 141.95C634.303 141.71 634.568 141.47 634.832 141.23C669.757 108.346 617.37 57.7002 579.271 89.6241C573.45 94.6647 566.835 103.306 566.835 112.907Z" fill="white"/>
<path fill-rule="evenodd" clip-rule="evenodd" d="M550.431 219.48C557.31 219.48 562.602 216.12 562.602 209.399C562.602 199.798 541.7 197.637 522.386 174.355C476.084 119.148 508.628 37.0577 584.562 22.656C692.774 2.01344 758.126 127.789 671.344 191.877C666.581 195.237 649.913 202.918 649.913 208.199C649.913 231.722 682.721 210.839 690.658 204.118C717.38 181.555 734.578 153.712 734.578 115.307C734.578 98.7453 729.286 80.9831 723.73 69.7017C720.555 63.2209 716.851 56.9802 712.618 51.2195C707.591 44.7387 703.887 41.6183 698.331 35.6176C690.658 27.2165 673.725 16.6552 663.142 11.8546C621.074 -7.3477 568.687 -2.78715 529.794 22.656C526.883 24.5762 525.825 25.7763 522.65 28.1766C491.165 50.4994 473.703 96.825 480.053 134.75C482.699 151.072 486.667 159.713 493.547 171.954C502.807 188.996 535.35 219.48 550.431 219.48Z" fill="white"/>
<path fill-rule="evenodd" clip-rule="evenodd" d="M524.503 112.907C524.503 130.669 526.355 141.71 536.409 156.592C557.575 186.836 575.038 179.395 575.038 168.594C575.038 156.352 546.198 150.591 546.198 116.747C546.198 86.5035 573.715 62.2606 602.289 62.2606C622.662 62.2606 635.891 65.861 649.649 78.5826C667.905 95.3846 672.138 123.708 657.057 145.311C648.59 158.032 637.743 158.752 637.743 168.594C637.743 174.834 646.209 183.475 657.322 175.074C674.519 162.113 688.277 144.111 688.277 121.548C688.277 95.8647 683.779 80.9829 662.613 61.7805C629.805 32.0169 571.069 33.6971 540.378 71.6217C531.647 82.6631 524.503 98.265 524.503 112.907Z" fill="white"/>
<path fill-rule="evenodd" clip-rule="evenodd" d="M90.0637 511.116H31.8563V99.4654H102.234C103.028 102.586 106.997 106.906 108.849 109.547L319.983 404.783C321.835 407.663 331.624 423.505 335.064 424.705V99.4654H393.271V511.116H319.983L119.697 232.682C115.992 227.641 94.0324 194.517 90.0637 193.317V511.116ZM1.69434 538.479H121.284V286.208L257.807 474.871C259.394 477.032 301.727 534.639 303.05 538.479H423.433V72.1021H304.108V330.854C301.462 329.173 263.628 275.167 257.278 266.526L199.864 185.876C195.631 180.355 192.456 175.315 188.223 169.794L153.563 121.068C149.594 115.547 146.154 110.507 142.186 104.986L124.724 80.7431C122.872 77.8628 120.226 75.2224 119.167 72.1021H1.69434V538.479Z" fill="white"/>
<path fill-rule="evenodd" clip-rule="evenodd" d="M859.723 279.247H1063.45V308.291H859.723V483.272H1084.62V512.316H828.768V75.2223H1084.62V104.266H859.723V279.247ZM795.695 541.359H1117.69V454.229H892.796V337.334H1095.2V250.204H892.796V133.309H1117.69V46.1787H795.695V541.359Z" fill="white"/>
</svg>
