<svg width="410" height="410" viewBox="0 0 410 410" fill="none" xmlns="http://www.w3.org/2000/svg">
<circle cx="205" cy="205" r="205" fill="white"/>
<path d="M264.625 163.576C264.625 180.096 258.343 195.939 247.161 207.62C235.979 219.301 220.814 225.864 205 225.864C189.186 225.864 174.021 219.301 162.839 207.62C151.657 195.939 145.375 180.096 145.375 163.576C145.375 147.056 151.657 131.213 162.839 119.532C174.021 107.85 189.186 101.288 205 101.288C220.814 101.288 235.979 107.85 247.161 119.532C258.343 131.213 264.625 147.056 264.625 163.576Z" fill="#282828"/>
<path fill-rule="evenodd" clip-rule="evenodd" d="M46 205.101C46 161.048 62.7517 118.8 92.57 87.6499C122.388 56.4999 162.831 39 205 39C247.169 39 287.612 56.4999 317.43 87.6499C347.248 118.8 364 161.048 364 205.101C364 249.154 347.248 291.403 317.43 322.553C287.612 353.703 247.169 371.202 205 371.202C162.831 371.202 122.388 353.703 92.57 322.553C62.7517 291.403 46 249.154 46 205.101ZM205 59.7627C178.8 59.7641 153.134 67.4939 130.954 82.0623C108.774 96.6307 90.9827 117.446 79.6278 142.111C68.2728 166.777 63.8157 194.291 66.7693 221.486C69.723 248.682 79.9674 274.453 96.3235 295.834C110.435 272.082 141.499 246.627 205 246.627C268.501 246.627 299.545 272.061 313.677 295.834C330.033 274.453 340.277 248.682 343.231 221.486C346.184 194.291 341.727 166.777 330.372 142.111C319.017 117.446 301.226 96.6307 279.046 82.0623C256.866 67.4939 231.2 59.7641 205 59.7627Z" fill="#282828"/>
</svg>
